<svg id="svg" version="1.1" xmlns="http://www.w3.org/2000/svg" xmlns:xlink="http://www.w3.org/1999/xlink" width="400" height="592.2651933701658" viewBox="0, 0, 400,592.2651933701658"><g id="svgg"><path id="path0" d="M242.000 0.252 C 242.000 0.390,242.585 1.161,243.300 1.966 C 244.015 2.770,245.230 4.224,246.000 5.196 C 246.770 6.167,248.537 8.276,249.928 9.881 C 251.318 11.487,252.488 12.844,252.528 12.897 C 252.567 12.950,280.950 13.085,315.600 13.197 L 378.600 13.400 378.704 32.681 L 378.808 51.962 377.504 52.196 C 376.787 52.324,348.896 52.378,315.524 52.315 L 254.848 52.200 253.393 50.500 C 251.331 48.091,248.711 48.008,246.829 50.291 C 242.989 54.950,248.941 60.659,253.200 56.400 L 254.800 54.800 316.371 54.800 C 372.961 54.800,377.996 54.853,378.600 55.458 C 379.272 56.129,379.127 58.061,378.385 58.329 C 378.189 58.399,378.243 58.800,378.504 59.219 C 378.856 59.782,378.863 60.097,378.531 60.429 C 378.199 60.761,378.248 61.168,378.720 61.989 C 379.308 63.014,379.304 63.182,378.669 64.150 L 377.982 65.200 340.571 65.200 C 307.334 65.200,303.025 65.130,301.944 64.571 C 300.507 63.828,299.882 63.998,298.977 65.379 C 297.600 67.481,299.995 69.175,302.400 67.800 C 303.657 67.081,376.695 66.902,378.026 67.614 C 378.783 68.019,378.800 68.901,378.800 108.964 C 378.800 154.109,378.697 151.749,380.740 153.327 C 387.722 158.720,395.492 164.393,395.900 164.396 C 396.298 164.399,396.400 147.695,396.400 82.200 L 396.400 0.000 319.200 0.000 C 276.740 0.000,242.000 0.113,242.000 0.252 M1.200 277.547 L 1.200 284.294 8.646 291.447 C 18.041 300.473,17.284 300.406,17.127 292.191 L 17.000 285.513 9.400 278.162 C 5.220 274.119,1.665 270.809,1.500 270.806 C 1.335 270.802,1.200 273.836,1.200 277.547 M0.000 443.600 L 0.000 592.000 157.200 592.000 C 243.660 592.000,314.400 591.916,314.400 591.814 C 314.400 591.554,313.449 590.535,307.666 584.600 C 304.880 581.740,302.357 578.929,302.061 578.353 C 301.764 577.777,299.872 575.663,297.855 573.655 L 294.189 570.004 229.295 569.996 C 182.079 569.991,164.400 569.868,164.400 569.545 C 164.400 569.260,164.169 569.293,163.752 569.640 C 163.277 570.034,161.916 570.150,158.652 570.076 C 156.203 570.021,151.860 570.228,149.000 570.538 C 145.483 570.919,143.023 570.988,141.400 570.752 C 137.187 570.137,134.363 569.988,127.331 570.007 C 122.609 570.019,120.375 569.883,120.181 569.570 C 119.984 569.250,119.821 569.243,119.634 569.544 C 119.473 569.805,116.890 570.061,113.065 570.196 C 109.155 570.334,106.460 570.604,105.968 570.909 C 105.328 571.306,105.109 571.293,104.829 570.843 C 104.431 570.203,100.877 569.552,100.562 570.061 C 100.447 570.248,96.695 570.400,92.225 570.400 C 85.425 570.400,84.015 570.500,83.591 571.011 C 83.167 571.522,82.341 571.580,78.537 571.369 C 74.374 571.138,73.831 571.191,72.101 572.004 C 70.449 572.781,70.043 572.832,68.867 572.406 C 68.127 572.139,66.864 571.886,66.060 571.845 C 65.256 571.804,64.379 571.634,64.111 571.468 C 63.843 571.303,60.243 571.196,56.112 571.231 C 46.444 571.314,45.145 571.252,44.451 570.676 C 43.919 570.235,37.605 570.052,21.500 570.010 L 17.600 570.000 17.600 567.600 C 17.600 566.092,17.767 565.200,18.049 565.200 C 18.378 565.200,18.380 565.057,18.055 564.666 C 17.733 564.279,17.610 529.531,17.603 437.671 L 17.594 311.209 9.615 303.205 C 4.438 298.012,1.348 295.200,0.818 295.200 L 0.000 295.200 0.000 443.600 M309.456 572.900 C 309.780 573.435,317.753 582.868,319.853 585.200 C 322.530 588.174,325.193 591.413,325.196 591.700 C 325.198 591.865,328.170 592.000,331.800 592.000 C 338.913 592.000,338.898 592.005,337.284 590.165 C 336.688 589.485,334.049 586.425,331.421 583.365 C 328.793 580.304,326.538 577.710,326.411 577.600 C 326.283 577.490,325.212 576.275,324.030 574.900 L 321.880 572.400 315.516 572.400 C 310.531 572.400,309.218 572.508,309.456 572.900 " stroke="none" fill="#f27411" fill-rule="evenodd"></path><path id="path1" d="M0.800 121.167 C 0.800 203.328,0.932 242.377,1.209 242.470 C 1.434 242.545,5.304 246.280,9.809 250.770 L 18.000 258.934 18.000 266.479 C 18.000 274.463,17.659 275.805,16.171 273.680 C 15.853 273.226,15.074 272.347,14.439 271.727 C 13.805 271.107,10.587 267.945,7.287 264.700 C 3.988 261.455,1.178 258.800,1.044 258.800 C 0.524 258.800,0.780 269.600,1.300 269.612 C 1.575 269.619,5.445 273.190,9.900 277.547 L 18.000 285.470 18.000 292.486 C 18.000 302.686,19.377 303.047,5.075 289.100 C 0.619 284.754,0.800 284.716,0.800 290.000 C 0.800 292.719,0.956 294.400,1.207 294.400 C 1.431 294.400,5.301 298.091,9.807 302.602 L 18.000 310.805 18.000 435.779 C 18.000 518.663,18.135 560.836,18.400 561.000 C 18.932 561.329,18.913 563.083,18.374 563.416 C 18.095 563.589,18.182 563.938,18.628 564.431 C 19.254 565.123,19.256 565.204,18.654 565.434 C 18.173 565.619,18.000 566.199,18.000 567.631 L 18.000 569.576 29.844 569.563 C 36.358 569.555,44.593 569.669,48.144 569.816 C 52.578 569.999,54.960 569.942,55.749 569.633 C 56.467 569.351,57.066 569.323,57.349 569.556 C 57.608 569.770,62.648 569.905,69.200 569.872 C 77.089 569.833,80.848 569.956,81.406 570.271 C 82.031 570.625,82.384 570.601,82.982 570.164 C 83.586 569.722,85.543 569.600,92.043 569.600 C 98.312 569.600,100.377 569.478,100.514 569.100 C 100.657 568.705,100.885 568.712,101.595 569.133 C 102.217 569.501,102.622 569.538,102.910 569.250 C 103.197 568.963,103.652 569.067,104.385 569.589 C 105.102 570.100,105.631 570.225,106.022 569.978 C 106.340 569.777,109.309 569.609,112.620 569.606 C 116.830 569.602,118.787 569.453,119.130 569.110 C 119.517 568.723,119.785 568.723,120.405 569.110 C 121.486 569.786,130.524 569.778,131.618 569.100 C 132.280 568.689,132.489 568.705,132.788 569.185 C 133.370 570.121,162.604 569.901,163.652 568.953 C 164.328 568.342,164.402 568.341,164.634 568.946 C 164.931 569.717,181.330 569.960,181.800 569.200 C 181.936 568.980,182.397 568.800,182.824 568.800 C 183.251 568.800,183.600 568.980,183.600 569.200 C 183.600 569.465,202.374 569.600,239.121 569.600 L 294.643 569.600 298.721 573.739 C 300.965 576.016,302.800 578.090,302.800 578.348 C 302.800 578.606,305.590 581.642,309.000 585.096 C 312.410 588.549,315.200 591.516,315.200 591.688 C 315.200 591.859,317.270 592.000,319.800 592.000 C 322.330 592.000,324.400 591.911,324.400 591.803 C 324.400 591.600,323.075 589.979,321.981 588.843 C 321.641 588.489,320.291 586.943,318.981 585.408 C 317.672 583.872,316.291 582.269,315.913 581.846 C 315.535 581.423,314.185 579.830,312.913 578.306 C 311.641 576.782,310.027 574.885,309.327 574.091 C 306.985 571.435,307.660 571.124,315.430 571.273 L 322.004 571.400 323.442 573.000 C 324.233 573.880,325.537 575.410,326.340 576.399 C 327.143 577.389,327.980 578.395,328.200 578.634 C 329.782 580.354,333.758 584.892,334.423 585.738 C 334.869 586.305,335.964 587.541,336.856 588.485 C 337.748 589.428,338.751 590.605,339.085 591.100 C 339.662 591.955,339.948 592.000,344.846 592.000 C 350.414 592.000,350.445 591.991,349.087 590.681 C 348.584 590.196,347.279 588.720,346.187 587.400 C 345.094 586.080,344.090 584.910,343.955 584.800 C 343.820 584.690,342.108 582.710,340.150 580.400 C 335.820 575.290,334.757 574.056,334.071 573.346 C 332.153 571.362,331.380 571.416,365.005 571.200 L 396.200 571.000 396.400 545.600 C 396.615 518.285,396.522 519.416,398.596 519.027 L 400.000 518.764 400.000 514.539 C 400.000 510.666,399.942 510.340,399.300 510.618 C 398.915 510.785,398.150 510.940,397.600 510.961 L 396.600 511.000 396.500 338.549 C 396.408 180.786,396.344 166.052,395.757 165.564 C 395.404 165.271,394.795 164.844,394.403 164.616 C 393.534 164.108,385.607 158.039,384.871 157.318 C 384.581 157.033,384.221 156.797,384.071 156.794 C 383.922 156.790,383.170 156.232,382.400 155.553 C 381.630 154.874,380.527 154.073,379.948 153.774 C 378.195 152.866,378.206 153.118,378.000 110.200 L 377.800 68.600 339.833 68.600 C 309.815 68.600,301.832 68.705,301.700 69.100 C 301.453 69.840,300.477 69.709,299.141 68.758 C 296.621 66.963,298.668 62.390,301.475 63.545 C 303.789 64.498,377.800 63.970,377.800 63.000 C 377.800 62.205,377.499 62.199,327.520 62.098 L 277.240 61.997 275.764 62.998 C 273.886 64.273,273.277 64.257,271.637 62.887 C 267.925 59.788,271.850 54.294,275.840 57.002 L 277.316 58.003 327.558 57.902 L 377.800 57.800 377.800 56.800 L 377.800 55.800 316.315 55.699 C 256.108 55.600,254.821 55.613,254.420 56.363 C 252.010 60.865,245.179 58.726,245.051 53.430 C 244.918 47.945,250.880 45.812,254.196 50.159 L 255.297 51.603 316.548 51.501 L 377.800 51.400 377.911 33.400 C 377.972 23.500,377.924 14.995,377.803 14.500 L 377.585 13.600 314.916 13.600 L 252.247 13.600 250.695 11.936 C 249.841 11.020,248.660 9.635,248.071 8.858 C 247.482 8.081,246.497 6.895,245.882 6.222 C 245.267 5.550,243.917 3.879,242.882 2.510 L 241.000 0.020 120.900 0.010 L 0.800 0.000 0.800 121.167 M49.400 10.400 C 49.540 10.627,49.204 10.800,48.624 10.800 C 48.061 10.800,47.600 10.620,47.600 10.400 C 47.600 10.180,47.949 10.000,48.376 10.000 C 48.803 10.000,49.264 10.180,49.400 10.400 M398.267 294.267 C 397.502 295.031,398.015 296.800,399.000 296.800 C 399.876 296.800,400.000 296.627,400.000 295.400 C 400.000 294.048,399.084 293.449,398.267 294.267 " stroke="none" fill="#fbfbfb" fill-rule="evenodd"></path><path id="path2" d="M272.546 57.272 C 270.729 58.143,270.392 60.343,271.796 62.167 C 272.595 63.205,274.571 63.155,275.729 62.067 L 276.652 61.200 327.277 61.200 C 381.273 61.200,379.372 61.266,378.657 59.405 C 378.452 58.869,372.606 58.800,327.666 58.800 C 278.766 58.800,276.873 58.773,275.954 58.055 C 274.648 57.036,273.560 56.785,272.546 57.272 M1.200 250.775 L 1.200 257.616 9.210 265.531 C 13.616 269.885,17.306 273.361,17.410 273.257 C 17.515 273.152,17.600 270.040,17.600 266.341 L 17.600 259.615 9.773 251.907 C 5.469 247.668,1.779 244.140,1.573 244.067 C 1.352 243.987,1.200 246.712,1.200 250.775 M397.200 295.400 L 397.200 298.000 398.700 297.953 C 400.151 297.907,400.161 297.897,399.000 297.651 C 397.109 297.249,396.909 293.600,398.778 293.600 C 399.450 293.600,400.000 293.420,400.000 293.200 C 400.000 292.980,399.370 292.800,398.600 292.800 L 397.200 292.800 397.200 295.400 M334.991 572.415 C 334.766 572.779,337.342 576.217,340.079 579.206 C 340.586 579.759,341.896 581.289,342.991 582.606 C 344.086 583.923,345.076 585.090,345.192 585.200 C 346.479 586.430,350.400 591.213,350.400 591.554 C 350.400 591.877,356.738 592.000,373.400 592.000 L 396.400 592.000 396.400 582.243 C 396.400 573.714,396.320 572.455,395.767 572.243 C 394.606 571.797,335.269 571.965,334.991 572.415 " stroke="none" fill="#2b2a2a" fill-rule="evenodd"></path><path id="path3" d="M241.200 0.221 C 241.200 0.465,245.400 5.792,246.384 6.797 C 246.723 7.143,247.482 8.067,248.071 8.849 C 248.660 9.631,249.841 11.020,250.695 11.936 L 252.247 13.600 314.916 13.600 L 377.585 13.600 377.803 14.500 C 377.924 14.995,377.972 23.500,377.911 33.400 L 377.800 51.400 316.548 51.501 L 255.297 51.603 254.196 50.159 C 250.880 45.812,244.918 47.945,245.051 53.430 C 245.179 58.726,252.010 60.865,254.420 56.363 C 254.821 55.613,256.108 55.600,316.315 55.699 L 377.800 55.800 377.714 57.282 C 377.618 58.933,378.526 59.072,378.955 57.472 C 379.732 54.577,384.945 54.800,316.371 54.800 L 254.800 54.800 253.200 56.400 C 248.941 60.659,242.989 54.950,246.829 50.291 C 248.711 48.008,251.331 48.091,253.393 50.500 L 254.848 52.200 315.524 52.315 C 348.896 52.378,376.787 52.324,377.504 52.196 L 378.808 51.962 378.704 32.681 L 378.600 13.400 315.600 13.197 C 280.950 13.085,252.567 12.950,252.528 12.897 C 252.488 12.844,251.318 11.485,249.928 9.877 C 248.537 8.269,246.900 6.334,246.290 5.577 C 241.806 0.015,241.200 -0.622,241.200 0.221 M396.400 82.133 C 396.400 147.682,396.298 164.399,395.900 164.396 C 395.492 164.393,387.722 158.720,380.740 153.327 C 378.697 151.749,378.800 154.109,378.800 108.964 C 378.800 68.901,378.783 68.019,378.026 67.614 C 376.695 66.902,303.657 67.081,302.400 67.800 C 299.995 69.175,297.600 67.481,298.977 65.379 C 299.882 63.998,300.507 63.828,301.944 64.571 C 303.025 65.130,307.334 65.200,340.571 65.200 L 377.982 65.200 378.648 64.184 C 379.181 63.370,379.224 62.971,378.865 62.184 C 378.230 60.788,377.579 60.965,377.698 62.500 L 377.800 63.800 340.200 63.904 C 312.404 63.982,302.307 63.888,301.475 63.545 C 298.668 62.390,296.621 66.963,299.141 68.758 C 300.477 69.709,301.453 69.840,301.700 69.100 C 301.832 68.705,309.815 68.600,339.833 68.600 L 377.800 68.600 378.000 110.200 C 378.206 153.118,378.195 152.866,379.948 153.774 C 380.527 154.073,381.630 154.874,382.400 155.553 C 383.170 156.232,383.922 156.790,384.071 156.794 C 384.221 156.797,384.581 157.033,384.871 157.318 C 385.607 158.039,393.534 164.108,394.403 164.616 C 394.795 164.844,395.383 165.254,395.711 165.526 C 396.196 165.929,396.357 165.889,396.581 165.310 C 396.907 164.467,396.949 0.416,396.624 0.090 C 396.501 -0.033,396.400 36.887,396.400 82.133 M1.067 269.867 C 0.920 270.013,0.800 273.467,0.800 277.541 L 0.800 284.949 4.900 288.937 C 19.469 303.105,18.000 302.708,18.000 292.486 L 18.000 285.470 9.900 277.547 C 1.704 269.530,1.543 269.390,1.067 269.867 M9.400 278.162 L 17.000 285.513 17.127 292.191 C 17.284 300.406,18.041 300.473,8.646 291.447 L 1.200 284.294 1.200 277.547 C 1.200 273.836,1.335 270.802,1.500 270.806 C 1.665 270.809,5.220 274.119,9.400 278.162 M0.400 294.800 C -0.083 295.112,-0.022 295.189,0.718 295.194 C 1.374 295.198,3.906 297.478,9.615 303.205 L 17.594 311.209 17.603 437.671 C 17.610 529.531,17.733 564.279,18.055 564.666 C 18.380 565.057,18.378 565.200,18.049 565.200 C 17.767 565.200,17.600 566.092,17.600 567.600 L 17.600 570.000 21.500 570.010 C 37.605 570.052,43.919 570.235,44.451 570.676 C 45.145 571.252,46.444 571.314,56.112 571.231 C 60.243 571.196,63.843 571.303,64.111 571.468 C 64.379 571.634,65.256 571.804,66.060 571.845 C 66.864 571.886,68.127 572.139,68.867 572.406 C 70.043 572.832,70.449 572.781,72.101 572.004 C 73.831 571.191,74.374 571.138,78.537 571.369 C 82.341 571.580,83.167 571.522,83.591 571.011 C 84.015 570.500,85.425 570.400,92.225 570.400 C 96.695 570.400,100.447 570.248,100.562 570.061 C 100.877 569.552,104.431 570.203,104.829 570.843 C 105.109 571.293,105.328 571.306,105.968 570.909 C 106.460 570.604,109.155 570.334,113.065 570.196 C 116.890 570.061,119.473 569.805,119.634 569.544 C 119.821 569.243,119.984 569.250,120.181 569.570 C 120.375 569.883,122.609 570.019,127.331 570.007 C 134.363 569.988,137.187 570.137,141.400 570.752 C 143.023 570.988,145.483 570.919,149.000 570.538 C 151.860 570.228,156.203 570.021,158.652 570.076 C 161.916 570.150,163.277 570.034,163.752 569.640 C 164.169 569.293,164.400 569.260,164.400 569.545 C 164.400 569.868,182.079 569.991,229.295 569.996 L 294.189 570.004 297.855 573.655 C 299.872 575.663,301.764 577.777,302.061 578.353 C 302.357 578.929,304.850 581.703,307.600 584.517 C 310.350 587.332,313.050 590.164,313.600 590.810 C 314.583 591.966,315.200 592.304,315.200 591.688 C 315.200 591.516,312.410 588.549,309.000 585.096 C 305.590 581.642,302.800 578.606,302.800 578.348 C 302.800 578.090,300.965 576.016,298.721 573.739 L 294.643 569.600 239.121 569.600 C 202.374 569.600,183.600 569.465,183.600 569.200 C 183.600 568.980,183.240 568.800,182.800 568.800 C 182.360 568.800,182.000 568.980,182.000 569.200 C 182.000 569.968,164.931 569.718,164.634 568.946 C 164.402 568.341,164.328 568.342,163.652 568.953 C 162.604 569.901,133.370 570.121,132.788 569.185 C 132.489 568.705,132.280 568.689,131.618 569.100 C 130.513 569.785,121.153 569.793,120.470 569.110 C 120.083 568.723,119.815 568.723,119.195 569.110 C 118.670 569.438,116.462 569.602,112.505 569.606 C 109.257 569.609,106.340 569.777,106.022 569.978 C 105.631 570.225,105.102 570.100,104.385 569.589 C 103.652 569.067,103.197 568.963,102.910 569.250 C 102.622 569.538,102.217 569.501,101.595 569.133 C 100.885 568.712,100.657 568.705,100.514 569.100 C 100.377 569.478,98.312 569.600,92.043 569.600 C 85.543 569.600,83.586 569.722,82.982 570.164 C 82.384 570.601,82.031 570.625,81.406 570.271 C 80.848 569.956,77.089 569.833,69.200 569.872 C 62.648 569.905,57.608 569.770,57.349 569.556 C 57.079 569.333,56.516 569.326,55.949 569.538 C 55.417 569.737,46.861 569.804,36.500 569.690 L 18.000 569.487 18.000 567.586 C 18.000 566.196,18.176 565.618,18.654 565.434 C 19.256 565.204,19.254 565.123,18.628 564.431 C 18.182 563.938,18.095 563.589,18.374 563.416 C 18.913 563.083,18.932 561.329,18.400 561.000 C 18.135 560.836,18.000 518.663,18.000 435.779 L 18.000 310.805 9.807 302.602 C 5.301 298.091,1.476 294.403,1.307 294.406 C 1.138 294.409,0.730 294.587,0.400 294.800 M308.455 571.897 C 308.134 572.497,308.308 572.935,309.327 574.091 C 310.027 574.885,311.641 576.782,312.913 578.306 C 314.185 579.830,315.535 581.423,315.913 581.846 C 316.291 582.269,317.672 583.872,318.981 585.408 C 320.291 586.943,321.641 588.482,321.981 588.826 C 322.322 589.170,323.050 590.024,323.600 590.722 C 324.559 591.941,325.204 592.336,325.196 591.700 C 325.193 591.407,323.251 589.060,318.991 584.200 C 317.834 582.880,315.133 579.730,312.988 577.200 L 309.089 572.600 315.445 572.485 L 321.800 572.370 322.956 573.685 C 323.592 574.408,324.678 575.630,325.369 576.400 C 327.862 579.180,336.227 588.940,337.400 590.438 C 338.060 591.280,338.831 591.977,339.114 591.985 C 339.852 592.007,339.211 590.985,337.040 588.684 C 336.046 587.630,334.868 586.304,334.422 585.738 C 333.757 584.892,329.782 580.353,328.200 578.634 C 327.980 578.395,327.143 577.389,326.340 576.399 C 325.537 575.410,324.233 573.880,323.442 573.000 L 322.004 571.400 315.430 571.273 C 309.340 571.156,308.827 571.202,308.455 571.897 " stroke="none" fill="#e1c198" fill-rule="evenodd"></path><path id="path4" d="M0.000 147.400 C 0.000 245.400,0.134 294.800,0.400 294.800 C 0.823 294.800,0.831 294.327,0.810 272.100 C 0.803 264.785,0.908 258.800,1.043 258.800 C 1.178 258.800,3.988 261.455,7.287 264.700 C 10.587 267.945,13.805 271.107,14.439 271.727 C 15.074 272.347,15.853 273.226,16.171 273.680 C 17.659 275.805,18.000 274.463,18.000 266.479 L 18.000 258.934 9.809 250.770 C 5.304 246.280,1.434 242.545,1.209 242.470 C 0.932 242.377,0.800 203.328,0.800 121.167 C 0.800 40.656,0.666 0.000,0.400 0.000 C 0.134 0.000,0.000 49.400,0.000 147.400 M396.774 48.300 C 396.822 74.865,396.735 189.792,396.581 303.693 C 396.321 495.536,396.349 510.806,396.957 511.039 C 397.319 511.178,398.151 511.069,398.807 510.797 L 400.000 510.303 400.000 404.151 L 400.000 298.000 398.600 298.000 L 397.200 298.000 397.200 295.400 L 397.200 292.800 398.600 292.800 L 400.000 292.800 400.000 146.400 L 400.000 0.000 398.343 -0.000 L 396.686 -0.000 396.774 48.300 M47.600 10.400 C 47.600 10.620,48.061 10.800,48.624 10.800 C 49.204 10.800,49.540 10.627,49.400 10.400 C 49.264 10.180,48.803 10.000,48.376 10.000 C 47.949 10.000,47.600 10.180,47.600 10.400 M271.582 57.100 C 268.036 60.271,271.850 65.655,275.762 63.000 L 277.236 62.000 327.418 62.000 C 360.606 62.000,377.600 61.865,377.600 61.600 C 377.600 61.335,360.509 61.200,327.126 61.200 L 276.652 61.200 275.729 62.067 C 274.571 63.155,272.595 63.205,271.796 62.167 C 269.192 58.784,272.560 55.464,275.954 58.068 C 277.061 58.918,377.600 59.246,377.600 58.400 C 377.600 58.135,360.619 58.000,327.456 58.000 L 277.312 58.000 275.838 57.000 C 273.952 55.720,273.103 55.740,271.582 57.100 M9.773 251.907 L 17.600 259.615 17.600 266.341 C 17.600 270.040,17.515 273.152,17.410 273.257 C 17.306 273.361,13.616 269.885,9.210 265.531 L 1.200 257.616 1.200 250.775 C 1.200 246.712,1.352 243.987,1.573 244.067 C 1.779 244.140,5.469 247.668,9.773 251.907 M397.678 295.500 C 397.791 297.263,400.000 298.905,400.000 297.227 C 400.000 296.992,399.539 296.800,398.975 296.800 C 397.494 296.800,397.687 294.373,399.200 293.956 C 400.113 293.704,400.085 293.676,398.878 293.640 L 397.556 293.600 397.678 295.500 M398.200 519.085 C 397.760 519.191,397.220 519.449,397.000 519.659 C 396.746 519.901,396.527 529.320,396.400 545.520 L 396.200 571.000 365.005 571.200 C 329.177 571.430,331.697 571.065,335.888 575.413 C 336.157 575.691,338.026 577.872,340.043 580.260 C 342.059 582.647,343.820 584.690,343.955 584.800 C 344.090 584.910,345.098 586.080,346.195 587.400 C 348.924 590.684,350.400 592.153,350.400 591.584 C 350.400 591.221,346.535 586.484,345.192 585.200 C 345.076 585.090,344.086 583.923,342.991 582.606 C 341.896 581.289,340.586 579.759,340.079 579.206 C 337.342 576.217,334.766 572.779,334.991 572.415 C 335.269 571.965,394.606 571.797,395.767 572.243 C 396.320 572.455,396.400 573.714,396.400 582.243 L 396.400 592.000 398.200 592.000 L 400.000 592.000 400.000 555.400 C 400.000 526.362,399.897 518.810,399.500 518.846 C 399.225 518.872,398.640 518.979,398.200 519.085 " stroke="none" fill="#b3bbcb" fill-rule="evenodd"></path></g></svg>